# xmcd CD database file
#
# Track frame offsets:
#	182
#	12802
#	25827
#	38427
#	51315
#	63040
#	76577
#	89657
#	102080
#	115660
#	129090
#	141920
#	154900
#	167925
#	181052
#	194047
#	207447
#	220435
#
# Disc length: 3095 seconds
#
# Revision: 0
# Processed by: cddbd v1.5PL3 Copyright (c) Steve Scherf et al.
# Submitted via: CDex 1.51
#
DISCID=ee0c1512
DTITLE=Billy Eckstine - Billy Eckstine and band
DYEAR=1900
DGENRE=Jazz
TTITLE0=A Cottage For Sale
TTITLE1=Sophisticated Lady
TTITLE2=Lonesome Lover Blues
TTITLE3=Serenade in Blue
TTITLE4=In a Sentimental Mood
TTITLE5=Blues for Sale
TTITLE6=Prisoner of Love
TTITLE7=You're my Everything
TTITLE8=You Call It Madness
TTITLE9=Tell Me Pretty Baby
TTITLE10=My Silent Love
TTITLE11=Time On My Hands
TTITLE12=Cool Breeze
TTITLE13=I'm In The Mood For Love
TTITLE14=Without a Song
TTITLE15=Blue
TTITLE16=Solitude
TTITLE17=All The Things You Are
EXTD=
EXTT0=
EXTT1=
EXTT2=
EXTT3=
EXTT4=
EXTT5=
EXTT6=
EXTT7=
EXTT8=
EXTT9=
EXTT10=
EXTT11=
EXTT12=
EXTT13=
EXTT14=
EXTT15=
EXTT16=
EXTT17=
PLAYORDER=
